<svg viewBox="0 0 24 24" fill="#FFFFFF" xmlns="http://www.w3.org/2000/svg" data-test-id="icon" class="icon_0ce8f7f" aria-hidden="true"><path fill-rule="evenodd" clip-rule="evenodd" d="M5 7.23a1 1 0 001 1h1.23a1 1 0 001-1V6a1 1 0 00-1-1H6a1 1 0 00-1 1v1.23zm5.385 0a1 1 0 001 1h1.23a1 1 0 001-1V6a1 1 0 00-1-1h-1.23a1 1 0 00-1 1v1.23zm6.384 1a1 1 0 01-1-1V6a1 1 0 011-1H18a1 1 0 011 1v1.23a1 1 0 01-1 1h-1.23zM5 12.617a1 1 0 001 1h1.23a1 1 0 001-1v-1.231a1 1 0 00-1-1H6a1 1 0 00-1 1v1.23zm6.385 1a1 1 0 01-1-1v-1.231a1 1 0 011-1h1.23a1 1 0 011 1v1.23a1 1 0 01-1 1h-1.23zm4.384-1a1 1 0 001 1H18a1 1 0 001-1v-1.231a1 1 0 00-1-1h-1.23a1 1 0 00-1 1v1.23zM6 19a1 1 0 01-1-1v-1.231a1 1 0 011-1h1.23a1 1 0 011 1v1.23a1 1 0 01-1 1H6zm4.385-1a1 1 0 001 1h1.23a1 1 0 001-1v-1.231a1 1 0 00-1-1h-1.23a1 1 0 00-1 1v1.23zm6.384 1a1 1 0 01-1-1v-1.231a1 1 0 011-1H18a1 1 0 011 1v1.23a1 1 0 01-1 1h-1.23z"></path></svg>