<svg xmlns="http://www.w3.org/2000/svg" xmlns:xlink="http://www.w3.org/1999/xlink" viewBox="0,0,256,256" width="24px" height="24px"><g fill="#6b7280" fill-rule="nonzero" stroke="none" stroke-width="1" stroke-linecap="butt" stroke-linejoin="miter" stroke-miterlimit="10" stroke-dasharray="" stroke-dashoffset="0" font-family="none" font-weight="none" font-size="none" text-anchor="none" style="mix-blend-mode: normal"><g transform="scale(8,8)"><path d="M15,8.32813c1.29688,0 2.35156,1.05469 2.35156,2.35156c0,1.29297 -1.05469,2.34766 -2.35156,2.34766c-1.29687,0 -2.35156,-1.05469 -2.35156,-2.34766c0,-1.29687 1.05469,-2.35156 2.35156,-2.35156zM15,16.35547c3.13281,0 5.67969,-2.54687 5.67969,-5.67578c0,-3.13281 -2.54687,-5.67969 -5.67969,-5.67969c-3.13281,0 -5.67578,2.54688 -5.67578,5.67969c0,3.12891 2.54297,5.67578 5.67578,5.67578zM17.29688,20.98828c1.15625,-0.26562 2.26953,-0.72266 3.29688,-1.36719c0.77734,-0.48828 1.01172,-1.51562 0.52344,-2.29297c-0.49219,-0.78125 -1.51562,-1.01562 -2.29687,-0.52344c-2.32422,1.46094 -5.31641,1.46094 -7.64453,0c-0.77734,-0.49219 -1.80469,-0.25781 -2.29297,0.52344c-0.48828,0.77734 -0.25391,1.80469 0.52344,2.29297c1.02734,0.64453 2.14063,1.10156 3.29688,1.36719l-3.17578,3.17188c-0.64844,0.64844 -0.64844,1.70313 0,2.35156c0.32813,0.32422 0.75,0.48828 1.17578,0.48828c0.42578,0 0.85156,-0.16406 1.17969,-0.48828l3.11719,-3.11719l3.12109,3.11719c0.64844,0.65234 1.69922,0.65234 2.35156,0c0.64844,-0.64844 0.64844,-1.70312 0,-2.35156z"></path></g></g></svg>